<svg xmlns="http://www.w3.org/2000/svg" xml:space="preserve" viewBox="0 0 512 512">
  <path fill="#ffde83" d="M445 235c-6-3-13-2-18 2l-99 72 63 64a7 7 0 0 1-10 9l-65-64-26 19a58 58 0 0 1-68 0l-26-19-65 64a7 7 0 1 1-10-9l63-64-99-72c-5-4-12-5-18-2s-10 9-10 16v85c0 4-3 7-6 7v16a7 7 0 0 1 3 1l1 1a7 7 0 0 1 0 10 7 7 0 0 1-3 2h-1v11c3 0 6 3 6 7v46c0 10 8 17 18 17h362c10 0 17-7 17-17V251c1-7-3-13-9-16zM108 404a8 8 0 0 1-2 2 7 7 0 0 1-2 0 7 7 0 1 1 4-12 7 7 0 0 1 0 10zm305 0a7 7 0 0 1-9 0c-2-1-3-3-3-5a7 7 0 0 1 7-7 7 7 0 0 1 5 12z"/>
  <path fill="#dbdbef" d="M400 198h-1c-4 0-6-3-6-7V73c0-8-7-15-16-15H135c-9 0-16 7-16 15v171l111 82c16 11 36 11 52 0l113-84h1l3-2 1-1v-41zm-66 13c-9 16-22 33-41 50l-1 2h-1l-2 2-2 1-3 2-2 1a52 52 0 0 1-7 3h-1l-1 1-3 1h-1a33 33 0 0 1-5 1h-7a54 54 0 0 1-6 0h-4l-1-1h-1l-3-1h-2a60 60 0 0 1-12-6l-2-1-3-2v-1a33 33 0 0 1-2-1c-20-18-34-35-43-51-8-14-12-27-12-40a54 54 0 0 1 89-40 53 53 0 0 1 75 0c10 10 16 24 16 38 0 13-4 27-12 42z"/>
  <path fill="#f57070" d="M320 141a39 39 0 0 0-59 4c-1 2-3 3-5 3l-6-2a39 39 0 0 0-70 25c0 13 5 26 14 40 9 13 21 26 36 40l1 1h1v1l2 1 1 1a57 57 0 0 0 7 4l2 1h2l2 1h17l1-1h3l1-1a38 38 0 0 0 9-4v-1h1l2-2h1l1-1c15-14 26-27 34-40 10-15 14-29 14-42 0-11-4-20-12-28zm-84 25c-3 3-8 2-10-1-2-2-4-3-7-3l-6 3-2 6c0 4-3 7-7 7s-7-3-7-7c0-13 10-23 22-23 7 0 14 3 18 8 2 3 2 8-1 10z"/>
  <path d="M330 131a53 53 0 0 0-75 0 53 53 0 0 0-89 40c0 13 4 26 12 40a207 207 0 0 0 45 52v1l3 2 2 1a44 44 0 0 0 9 5l3 1a54 54 0 0 0 5 1h1l1 1h5l5 1v-1h1a52 52 0 0 0 6 0 48 48 0 0 0 5-1h1l3-1 1-1h1a54 54 0 0 0 7-3l2-1 3-2 2-1 2-2h1l1-2c19-17 32-34 41-50 8-15 12-29 12-42 0-14-6-28-16-38zm-12 80a216 216 0 0 1-34 40l-1 1h-1l-2 2h-1v1a43 43 0 0 1-9 4l-1 1h-3l-1 1h-13a39 39 0 0 1-3 0h-1l-2-1h-2a39 39 0 0 1-5-3l-2-1-2-1-1-1-2-1v-1h-1l-1-1c-15-14-27-27-36-40-9-14-14-27-14-40a40 40 0 0 1 70-25l6 2 5-2a39 39 0 0 1 59-5c8 8 12 17 12 28 0 13-4 27-14 42z" class="st6"/>
  <path d="M236 166c-3 3-8 2-10-1-2-2-4-3-7-3l-6 3-2 6c0 4-3 7-7 7s-7-3-7-7c0-13 10-23 22-23 7 0 14 3 18 8 2 3 2 8-1 10zM111 399a7 7 0 0 1-5 7 7 7 0 0 1-2 0 7 7 0 1 1 4-12c2 1 3 3 3 5zm304 0a7 7 0 0 1-7 7l-4-2c-2-1-3-3-3-5a7 7 0 0 1 7-7 7 7 0 0 1 7 7z" class="st6"/>
  <path d="M469 251v186c0 17-15 31-32 31H75c-17 0-32-14-32-31v-46a7 7 0 0 1 14 0v46c0 10 8 17 18 17h362c10 0 17-7 17-17V251c0-7-3-13-9-16s-13-2-18 2l-99 72 63 64a7 7 0 0 1-10 9l-65-64-26 19a58 58 0 0 1-68 0l-26-19-65 64a7 7 0 1 1-10-9l63-64-99-72c-5-4-12-5-18-2s-10 9-10 16v85c0 4-3 7-6 7h-1c-3 0-7-3-7-7v-85a31 31 0 0 1 51-26l11 9V73c0-16 14-29 30-29h242c16 0 30 13 30 29v118c0 4-3 7-7 7h-1c-4 0-6-3-6-7V73c0-8-7-15-16-15H135c-9 0-16 7-16 15v171l111 82c16 11 36 11 52 0l113-84h1l3-2 1-1 18-14c10-7 23-8 33-2 11 5 18 16 18 28z" class="st6"/>
  <path d="M58 366a7 7 0 0 1-7 7h-3a8 8 0 0 1-2-2 7 7 0 0 1 0-10 7 7 0 0 1 2-1 7 7 0 0 1 7 1c2 2 3 3 3 5z" class="st6"/>
</svg>